<svg xmlns="http://www.w3.org/2000/svg" width="278" height="139" viewBox="0 0 278 139"><defs><style>.a{fill:#d21b1b;}.b{fill:#fff;}</style></defs><g transform="translate(-238)"><rect class="a" width="278" height="139" transform="translate(238)"/><path class="b" d="M-51.464-9.572v-6.846h6.026a9.384,9.384,0,0,1,1.66.143,4.147,4.147,0,0,1,1.414.512,2.729,2.729,0,0,1,.984,1.025,3.4,3.4,0,0,1,.369,1.681,3.1,3.1,0,0,1-1.107,2.665,4.627,4.627,0,0,1-2.829.82ZM-57.9-21.42V7.851h14.185a14.967,14.967,0,0,0,3.833-.492,10.25,10.25,0,0,0,3.321-1.517A7.47,7.47,0,0,0-34.245,3.2a8.056,8.056,0,0,0,.861-3.833,8.111,8.111,0,0,0-1.332-4.694,7.035,7.035,0,0,0-4.038-2.726,7.3,7.3,0,0,0,2.972-2.419,6.411,6.411,0,0,0,1-3.69,7.852,7.852,0,0,0-.676-3.444,5.625,5.625,0,0,0-1.906-2.234,8.232,8.232,0,0,0-2.952-1.209,18.23,18.23,0,0,0-3.813-.369Zm6.436,24.27V-5.186h7.01a5.424,5.424,0,0,1,3.362.963A3.785,3.785,0,0,1-39.821-1,4.024,4.024,0,0,1-40.21.882,3.1,3.1,0,0,1-41.256,2.05a4.426,4.426,0,0,1-1.517.615,8.589,8.589,0,0,1-1.8.184Zm27.8-19.473v-4.8H-29.49v4.8Zm-5.821,3.28V7.851h5.821V-13.344Zm10.946-8.076V7.851h5.821V.554l2.255-2.173,5.821,9.47H2.4l-8.9-13.406L1.5-13.344H-5.384l-7.338,7.625v-15.7Zm37.265,16.4H9.251a6.682,6.682,0,0,1,.266-1.394A4.28,4.28,0,0,1,10.3-7.891,4.41,4.41,0,0,1,11.773-9.06a5.064,5.064,0,0,1,2.316-.471,4.088,4.088,0,0,1,3.177,1.148A6.728,6.728,0,0,1,18.721-5.022Zm-9.47,3.69H24.543a14.963,14.963,0,0,0-.41-4.715,11.54,11.54,0,0,0-1.865-4.018,9.409,9.409,0,0,0-3.3-2.808,10.078,10.078,0,0,0-4.715-1.045,10.977,10.977,0,0,0-4.407.861A10.42,10.42,0,0,0,6.423-10.7,10.39,10.39,0,0,0,4.209-7.153,12.362,12.362,0,0,0,3.43-2.726a12.9,12.9,0,0,0,.758,4.51A10.241,10.241,0,0,0,6.341,5.309a9.376,9.376,0,0,0,3.4,2.275,12.105,12.105,0,0,0,4.51.8A11.1,11.1,0,0,0,20.4,6.744a9.728,9.728,0,0,0,3.772-5.452H19.049a3.656,3.656,0,0,1-1.558,1.865,5.19,5.19,0,0,1-3.034.881,5.2,5.2,0,0,1-3.772-1.271A5.885,5.885,0,0,1,9.251-1.332Zm18.694-4.51v5h12.34v-5ZM45.287-21.42V7.851h6.026V-12.688H51.4L58.569,7.851H63.53L70.7-12.893h.082V7.851h6.026V-21.42h-9.06L61.275-1.291h-.082L54.347-21.42Zm50.835,16.4h-9.47a6.681,6.681,0,0,1,.266-1.394A4.28,4.28,0,0,1,87.7-7.891,4.41,4.41,0,0,1,89.173-9.06a5.064,5.064,0,0,1,2.316-.471,4.088,4.088,0,0,1,3.177,1.148A6.728,6.728,0,0,1,96.122-5.022Zm-9.47,3.69h15.291a14.963,14.963,0,0,0-.41-4.715,11.54,11.54,0,0,0-1.865-4.018,9.409,9.409,0,0,0-3.3-2.808,10.078,10.078,0,0,0-4.715-1.045,10.977,10.977,0,0,0-4.407.861A10.42,10.42,0,0,0,83.823-10.7a10.39,10.39,0,0,0-2.214,3.546,12.362,12.362,0,0,0-.779,4.428,12.9,12.9,0,0,0,.758,4.51,10.241,10.241,0,0,0,2.152,3.526,9.376,9.376,0,0,0,3.4,2.275,12.105,12.105,0,0,0,4.51.8A11.1,11.1,0,0,0,97.8,6.744a9.728,9.728,0,0,0,3.772-5.452H96.45a3.656,3.656,0,0,1-1.558,1.865,5.19,5.19,0,0,1-3.034.881,5.2,5.2,0,0,1-3.772-1.271A5.885,5.885,0,0,1,86.652-1.332Z" transform="translate(354.9 76.42)"/></g></svg>